<svg xmlns="http://www.w3.org/2000/svg" width="2in" height="2in" fill-rule="evenodd" clip-rule="evenodd" image-rendering="optimizeQuality" shape-rendering="geometricPrecision" text-rendering="geometricPrecision" viewBox="0 0 2000 2000" id="web-development"><path fill="#152b49" d="M1165 1760l-330 0c-9,0 -16,-8 -16,-17l0 -198c0,-9 7,-16 16,-16l330 0c9,0 16,7 16,16l0 198c0,9 -7,17 -16,17z"></path><path fill="#1f3b62" d="M1800 1562l-1600 0c-30,0 -53,-24 -53,-53l0 -131 1706 0 0 131c0,29 -23,53 -53,53l0 0zm-1653 -1004l0 -82c0,-29 23,-53 53,-53l1600 0c30,0 53,24 53,53l0 82 -1706 0z"></path><polygon fill="#3ddce0" points="147 1378 147 558 1853 558 1853 1378"></polygon><path fill="#1f3b62" d="M1360 1760l-720 0c-9,0 -17,-8 -17,-17 0,-9 8,-17 17,-17l720 0c9,0 17,8 17,17 0,9 -8,17 -17,17z"></path><path fill="#48c1e5" d="M443 1520c0,0 0,0 0,0 -27,0 -50,-22 -50,-50 0,-27 23,-50 50,-50 28,0 51,23 51,50 0,28 -23,50 -51,50z"></path><path fill="#fdcf5f" d="M561 1520c0,0 0,0 0,0 -27,0 -50,-22 -50,-50 0,-27 23,-50 50,-50 28,0 51,23 51,50 0,28 -23,50 -51,50z"></path><path fill="#fc6f58" d="M326 1520c0,0 0,0 0,0 -28,0 -51,-22 -51,-50 0,-27 23,-50 51,-50 27,0 50,23 50,50 0,28 -23,50 -50,50z"></path><path fill="#5959ba" d="M1408 1014l-816 0c-30,0 -53,-23 -53,-53l0 -668c0,-29 23,-53 53,-53l816 0c30,0 53,24 53,53l0 668c0,30 -23,53 -53,53z"></path><path fill="#fff" d="M962 877c-4,0 -8,0 -11,-2l-65 -22c-18,-6 -28,-26 -22,-44l8 -23c-5,-4 -9,-8 -14,-13l-22 11c-5,2 -10,3 -15,3 -13,0 -25,-7 -31,-19l-30 -62c-4,-8 -5,-17 -2,-26 3,-9 10,-16 18,-20l22 -11c-1,-6 -1,-12 -1,-19l-23 -8c-19,-6 -28,-26 -22,-44l22 -65c5,-14 18,-23 33,-23 4,0 8,1 12,2l23 8c4,-5 8,-10 12,-14l-10 -22c-5,-9 -5,-18 -2,-27 3,-9 9,-16 18,-20l61 -30c5,-2 10,-3 15,-3 14,0 26,7 32,19l10 22c7,-1 13,-1 19,-1l8 -23c5,-14 18,-23 33,-23 4,0 8,0 11,1l65 23c9,3 16,9 20,17 4,9 5,18 2,27l-8 23c5,4 9,8 14,13l22 -11c5,-2 10,-4 15,-4 13,0 25,8 31,20l30 62c9,17 1,38 -16,46l-22 11c1,6 1,12 1,19l23 8c9,3 16,9 20,17 4,9 5,18 2,27l-22 64c-5,14 -18,24 -33,24 -4,0 -8,-1 -12,-2l-23 -8c-4,5 -8,10 -12,14l10 22c5,9 5,18 2,27 -3,9 -9,16 -18,20l-61 30c-5,2 -10,3 -15,3 -14,0 -26,-8 -32,-19l-10 -22c-7,0 -13,1 -19,1l-8 23c-5,14 -18,23 -33,23z"></path><path fill="#5959ba" d="M1000 769c-78,0 -142,-63 -142,-142 0,-78 64,-141 142,-141 78,0 142,63 142,141 0,79 -64,142 -142,142z"></path></svg>